<?xml version="1.0" encoding="UTF-8"?>
<svg xmlns="http://www.w3.org/2000/svg" xmlns:xlink="http://www.w3.org/1999/xlink" viewBox="0 0 196 122.1">
  <defs>
    <style>
      .cls-1 {
        fill: url(#linear-gradient-2);
        mix-blend-mode: screen;
      }

      .cls-2 {
        fill-rule: evenodd;
      }

      .cls-2, .cls-3 {
        fill: #d6d6d6;
      }

      .cls-4 {
        fill: url(#linear-gradient-3);
      }

      .cls-5 {
        fill: url(#linear-gradient-4);
        mix-blend-mode: multiply;
      }

      .cls-6 {
        isolation: isolate;
      }

      .cls-7 {
        fill: url(#linear-gradient);
      }
    </style>
    <linearGradient id="linear-gradient" x1="61.65" y1="153.71" x2="136.24" y2="-36.45" gradientUnits="userSpaceOnUse">
      <stop offset="0" stop-color="#070707"/>
      <stop offset="1" stop-color="#404040"/>
    </linearGradient>
    <linearGradient id="linear-gradient-2" x1="194.52" y1="58.55" x2="-100.09" y2="68.37" gradientUnits="userSpaceOnUse">
      <stop offset="0" stop-color="#000"/>
      <stop offset=".26" stop-color="#020202"/>
      <stop offset=".38" stop-color="#090909"/>
      <stop offset=".47" stop-color="#161616"/>
      <stop offset=".55" stop-color="#282828"/>
      <stop offset=".62" stop-color="#404040"/>
      <stop offset=".69" stop-color="#5e5e5e"/>
      <stop offset=".74" stop-color="#818181"/>
      <stop offset=".8" stop-color="#aaa"/>
      <stop offset=".85" stop-color="#d6d6d6"/>
      <stop offset=".89" stop-color="#fff"/>
    </linearGradient>
    <linearGradient id="linear-gradient-3" x1="31.78" y1="26.5" x2="31.78" y2="78.63" gradientUnits="userSpaceOnUse">
      <stop offset="0" stop-color="#ffca3f"/>
      <stop offset=".1" stop-color="#ca7c22"/>
      <stop offset=".19" stop-color="#fddb7a"/>
      <stop offset=".42" stop-color="#ffad45"/>
      <stop offset=".55" stop-color="#a95f0d"/>
      <stop offset=".66" stop-color="#ffad45"/>
      <stop offset=".79" stop-color="#ffff9b"/>
      <stop offset=".87" stop-color="#ffed7b"/>
      <stop offset="1" stop-color="#ffca3f"/>
    </linearGradient>
    <linearGradient id="linear-gradient-4" y1="13.87" y2="79.13" xlink:href="#linear-gradient-3"/>
  </defs>
  <g class="cls-6">
    <g id="Layer_2" data-name="Layer 2">
      <g id="Layer_1-2" data-name="Layer 1">
        <g>
          <g>
            <path class="cls-7" d="M7.5,0h181.01c4.14,0,7.5,3.36,7.5,7.5v107.1c0,4.14-3.36,7.5-7.5,7.5H7.5c-4.14,0-7.5-3.36-7.5-7.5V7.5C0,3.36,3.36,0,7.5,0Z"/>
            <path class="cls-1" d="M188.5,0H50.68l72.55,122.1h65.27c4.14,0,7.5-3.36,7.5-7.5V7.5c0-4.14-3.36-7.5-7.5-7.5Z"/>
          </g>
          <g>
            <path class="cls-4" d="M22.47,32.07h18.62c2.05,0,3.72,1.67,3.72,3.72v13.21c0,2.06-1.67,3.72-3.72,3.72h-18.62c-2.06,0-3.72-1.67-3.72-3.72v-13.21c0-2.06,1.67-3.72,3.72-3.72Z"/>
            <path class="cls-5" d="M44.81,38.58v-.48h-4.78v-6.03h-.48v6.03h-3.87c-.51-1.62-1.94-2.81-3.68-2.97v-3.06h-.48v3.03c-1.88.03-3.46,1.29-4,3.01h-3.51v-6.03h-.48v6.03h-4.81v.48h4.81v6.76h-4.81v.48h4.81v6.91h.48v-6.91h3.41c.43,1.88,2.1,3.29,4.1,3.33v3.58h.48v-3.62c1.86-.18,3.37-1.52,3.78-3.29h3.77v6.91h.48v-6.91h4.78v-.48h-2.85v-6.76h2.85ZM27.37,45.34h-3.35v-6.76h3.38c-.05.26-.08.53-.08.8,0,1,.36,1.97,1.01,2.74-.65.78-1.01,1.74-1.01,2.74,0,.16.03.32.05.48ZM31.62,48.67c-2.1,0-3.81-1.71-3.81-3.81,0-.95.36-1.87,1.02-2.58l.15-.16-.15-.16c-.66-.71-1.02-1.63-1.02-2.58,0-2.1,1.71-3.81,3.81-3.81s3.81,1.71,3.81,3.81c0,.95-.36,1.87-1.02,2.58l-.15.16.15.16c.66.71,1.02,1.63,1.02,2.58,0,2.1-1.71,3.81-3.81,3.81ZM41.49,45.34h-5.63c.02-.16.05-.31.05-.48,0-1-.36-1.96-1.01-2.74.65-.78,1.01-1.74,1.01-2.74,0-.27-.03-.54-.08-.8h5.66v6.76Z"/>
          </g>
          <g>
            <path class="cls-3" d="M19.83,67.04l-.61-.64,1.83-1.99h1.52v9.1h-1.01v-8.03c0-.17.01-.29.04-.34l-.04-.04-1.73,1.94Z"/>
            <path class="cls-3" d="M24.52,73.52v-1.38c0-.16.01-.26.03-.3.02-.05.09-.12.21-.23l4.31-3.94c.11-.1.18-.18.21-.27.03-.08.04-.21.04-.38v-1.16c0-.13,0-.21-.02-.25-.01-.04-.06-.09-.14-.15-.08-.06-.14-.1-.18-.11-.04-.01-.14-.02-.3-.02h-2.31c-.16,0-.26,0-.3.02-.04.01-.1.05-.18.11-.08.06-.12.11-.14.15-.01.04-.02.12-.02.25v.25h-1.09v-.52c0-.26.1-.48.31-.65l.31-.26c.21-.17.42-.26.62-.26h3.28c.21,0,.42.09.62.26l.31.26c.21.17.31.39.31.65v1.83c0,.17-.01.3-.04.38-.03.08-.1.17-.21.27l-4.3,3.89c-.12.11-.19.2-.22.26-.03.06-.04.17-.04.34v.05h4.81v.91h-5.9Z"/>
            <path class="cls-3" d="M37.63,68.91l.51.42c.13.1.21.18.23.23.02.05.03.18.03.39v2.39c0,.17-.02.29-.04.36-.03.07-.1.16-.2.27l-.23.23c-.2.2-.4.3-.61.3h-3.69c-.21,0-.42-.09-.62-.26l-.31-.26c-.21-.17-.31-.39-.31-.65v-.52h1.09v.25c0,.13,0,.21.02.25.01.04.06.09.14.15.08.06.14.1.18.11.04.01.14.02.3.02h2.57c.16,0,.26,0,.3-.02.04-.01.1-.05.18-.11.08-.06.12-.11.14-.15.01-.04.02-.12.02-.25v-1.96c0-.19-.08-.36-.23-.49l-.2-.17c-.13-.11-.22-.18-.27-.2-.05-.02-.16-.03-.33-.03h-2.08v-.83h1.9c.16,0,.27,0,.32-.03.05-.02.14-.08.27-.19l.2-.16c.13-.1.21-.18.23-.23.02-.05.03-.15.03-.32v-1.61c0-.13,0-.21-.02-.25-.01-.04-.06-.09-.14-.15-.08-.06-.14-.1-.18-.11-.04-.01-.14-.02-.3-.02h-2.14c-.16,0-.27,0-.31.02-.04.01-.1.05-.18.11-.08.06-.12.11-.14.15-.01.04-.02.12-.02.25v.25h-1.09v-.52c0-.26.1-.48.31-.65l.31-.26c.21-.17.42-.26.62-.26h3.12c.21,0,.42.09.62.26l.31.26c.21.17.31.39.31.65v2.13c0,.15,0,.24-.03.29-.02.04-.09.11-.2.2l-.38.31c-.14.11-.26.17-.36.17v.06c.1,0,.22.06.36.17Z"/>
            <path class="cls-3" d="M44.82,67.93h1.09v2.6h1.25v.91h-1.25v2.08h-1.09v-2.08h-4.6v-1.07l4.45-5.95h1.22l-4.33,5.81c-.09.13-.16.21-.22.25v.05h3.48v-2.6Z"/>
            <path class="cls-3" d="M60.94,67.54h2.94c.21,0,.42.09.62.26l.31.26c.21.17.31.39.31.65v3.64c0,.26-.1.48-.31.65l-.31.26c-.21.17-.42.26-.62.26h-3.9c-.21,0-.42-.09-.62-.26l-.31-.26c-.21-.17-.31-.39-.31-.65v-.52h1.09v.25c0,.13,0,.21.02.25.01.04.06.09.14.15.08.06.14.1.18.11.04.01.14.02.3.02h2.94c.16,0,.26,0,.3-.02.04-.01.1-.05.18-.11.08-.06.12-.11.14-.15.01-.04.02-.12.02-.25v-3.09c0-.13,0-.21-.02-.25-.01-.04-.06-.09-.14-.15-.08-.06-.14-.1-.18-.11-.04-.01-.14-.02-.3-.02h-2.51c-.21,0-.42.09-.62.26-.21.17-.31.35-.31.52h-1.09v-4.81h6.11v.91h-5.02v2.85h.05c0-.09.1-.21.29-.35.26-.19.48-.29.65-.29Z"/>
            <path class="cls-3" d="M73.91,66.11h-1.09v-.25c0-.13,0-.21-.02-.25-.01-.04-.06-.09-.14-.15-.08-.06-.14-.1-.18-.11-.04-.01-.14-.02-.3-.02h-3.12c-.15,0-.25,0-.3.02-.04.01-.1.05-.18.11-.08.06-.12.11-.14.15-.01.04-.02.12-.02.25v2.59h.05l.06-.06c.3-.3.54-.45.71-.45h3.54c.21,0,.42.09.62.26l.31.26c.21.17.31.39.31.65v3.25c0,.26-.1.48-.31.65l-.31.26c-.21.17-.42.26-.62.26h-4.21c-.21,0-.42-.09-.62-.26l-.31-.26c-.21-.17-.31-.39-.31-.65v-6.76c0-.26.11-.48.31-.65l.31-.26c.21-.17.42-.26.62-.26h4.08c.21,0,.42.09.62.26l.31.26c.21.17.31.39.31.65v.52ZM72.95,72.07v-2.7c0-.13,0-.21-.02-.25-.01-.04-.06-.09-.13-.15-.08-.06-.14-.1-.18-.11-.04-.01-.14-.02-.3-.02h-2.92c-.16,0-.28,0-.33.03-.06.02-.16.07-.32.17-.2.12-.3.23-.31.32v2.72c0,.13,0,.21.02.25.01.04.06.09.14.15.08.06.14.1.18.11.04.01.14.02.3.02h3.25c.16,0,.26,0,.3-.02.04-.01.11-.05.18-.11.08-.06.12-.11.13-.15.01-.04.02-.12.02-.25Z"/>
            <path class="cls-3" d="M76.61,73.52l4.28-7.93c.08-.14.15-.22.22-.26h-5.63v-.91h6.67v.99l-4.34,8.11h-1.2Z"/>
            <path class="cls-3" d="M84.27,69.5l.61-.51c.14-.11.26-.17.36-.17v-.06c-.1,0-.22-.06-.36-.17l-.43-.34c-.14-.11-.21-.26-.21-.44v-2.22c0-.26.1-.48.31-.65l.31-.26c.21-.17.42-.26.62-.26h3.98c.21,0,.42.09.62.26l.31.26c.21.17.31.39.31.65v2.22c0,.18-.07.33-.21.44l-.43.34c-.14.11-.26.17-.36.17v.06c.1,0,.22.06.36.17l.61.51c.12.1.18.27.18.51v2.34c0,.26-.1.48-.31.65-.07.05-.17.14-.31.26-.21.17-.42.26-.62.26h-4.29c-.21,0-.42-.09-.62-.26-.14-.12-.24-.21-.31-.26-.21-.17-.31-.39-.31-.65v-2.34c0-.24.06-.41.18-.51ZM88.8,69.36h-2.62c-.13,0-.22,0-.26.02-.04.01-.12.06-.22.15l-.29.23c-.11.09-.18.15-.2.19-.02.04-.03.13-.03.27v1.85c0,.13,0,.21.02.25.01.04.06.09.14.15.08.06.14.1.18.11.04.01.14.02.3.02h3.33c.16,0,.26,0,.3-.02.04-.01.1-.05.18-.11.08-.06.12-.11.14-.15.01-.04.02-.12.02-.25v-1.85c0-.14,0-.23-.03-.27-.02-.04-.08-.11-.2-.19l-.29-.23c-.1-.09-.18-.14-.22-.15-.04-.01-.13-.02-.26-.02ZM88.99,65.33h-3.02c-.16,0-.26,0-.3.02-.04.01-.1.05-.18.11-.08.06-.12.11-.14.15-.01.04-.02.12-.02.25v1.69c0,.15,0,.24.03.29.02.04.08.11.18.19l.34.27c.09.07.15.11.2.12.05.01.15.02.31.02h2.18c.16,0,.26,0,.3-.02.05-.01.12-.05.2-.12l.34-.27c.11-.09.17-.15.18-.19.02-.04.03-.14.03-.29v-1.69c0-.13,0-.21-.02-.25-.01-.04-.06-.09-.14-.15-.08-.06-.14-.1-.18-.11-.04-.01-.14-.02-.3-.02Z"/>
            <path class="cls-3" d="M102.96,71.83h1.09v.25c0,.13,0,.21.02.25.01.04.06.09.14.15.08.06.14.1.18.11.04.01.14.02.3.02h3.12c.16,0,.26,0,.3-.02.04-.01.1-.05.18-.11.08-.06.12-.11.14-.15.01-.04.02-.12.02-.25v-2.59h-.05l-.06.07c-.3.3-.54.45-.71.45h-3.54c-.21,0-.42-.09-.62-.26l-.31-.26c-.21-.17-.31-.39-.31-.65v-3.25c0-.26.1-.48.31-.65l.31-.26c.21-.17.42-.26.62-.26h4.21c.21,0,.42.09.62.26l.31.26c.21.17.31.39.31.65v6.76c0,.26-.1.48-.31.65l-.31.26c-.21.17-.41.26-.62.26h-4.08c-.21,0-.42-.09-.62-.26l-.31-.26c-.21-.17-.31-.39-.31-.65v-.52ZM103.93,65.86v2.7c0,.13,0,.21.02.25s.06.09.14.15c.08.06.14.1.18.11.04.01.14.02.3.02h2.92c.17,0,.28,0,.33-.03.06-.02.16-.07.32-.17.2-.12.3-.23.31-.32v-2.72c0-.13,0-.21-.02-.25-.01-.04-.06-.09-.14-.15-.08-.06-.14-.1-.18-.11-.04-.01-.14-.02-.3-.02h-3.25c-.16,0-.26,0-.3.02-.04.01-.1.05-.18.11-.08.06-.12.11-.14.15-.01.04-.02.12-.02.25Z"/>
            <path class="cls-3" d="M113.14,64.42h5.15c.21,0,.42.09.62.26l.31.26c.21.17.31.39.31.65v6.76c0,.26-.11.48-.31.65l-.31.26c-.21.17-.42.26-.62.26h-5.15c-.21,0-.42-.09-.62-.26l-.31-.26c-.21-.17-.31-.39-.31-.65v-6.76c0-.26.11-.48.31-.65l.31-.26c.21-.17.42-.26.62-.26ZM118.45,72.07v-6.21c0-.13,0-.21-.02-.25-.01-.04-.06-.09-.14-.15-.08-.06-.14-.1-.18-.11-.04-.01-.14-.02-.3-.02h-4.19c-.15,0-.25,0-.3.02-.04.01-.1.05-.18.11-.08.06-.12.11-.14.15-.01.04-.02.12-.02.25v6.21c0,.13,0,.21.02.25.01.04.06.09.14.15.08.06.14.1.18.11.04.01.14.02.3.02h4.19c.16,0,.26,0,.3-.02.04-.01.11-.05.18-.11.08-.06.12-.11.14-.15.01-.04.02-.12.02-.25Z"/>
            <path class="cls-3" d="M122.05,67.04l-.61-.64,1.83-1.99h1.52v9.1h-1.01v-8.03c0-.17.01-.29.04-.34l-.04-.04-1.73,1.94Z"/>
            <path class="cls-3" d="M126.74,73.52v-1.38c0-.16,0-.26.03-.3.02-.05.09-.12.21-.23l4.32-3.94c.11-.1.18-.18.21-.27.03-.08.04-.21.04-.38v-1.16c0-.13,0-.21-.02-.25-.01-.04-.06-.09-.14-.15-.08-.06-.14-.1-.18-.11-.04-.01-.14-.02-.3-.02h-2.31c-.16,0-.26,0-.3.02-.04.01-.1.05-.18.11-.08.06-.12.11-.14.15-.01.04-.02.12-.02.25v.25h-1.09v-.52c0-.26.1-.48.31-.65l.31-.26c.21-.17.41-.26.62-.26h3.28c.21,0,.42.09.62.26l.31.26c.21.17.31.39.31.65v1.83c0,.17-.01.3-.04.38s-.1.17-.21.27l-4.3,3.89c-.12.11-.2.2-.22.26-.03.06-.04.17-.04.34v.05h4.81v.91h-5.9Z"/>
            <path class="cls-3" d="M149.6,68.91l.51.42c.13.1.21.18.23.23.02.05.03.18.03.39v2.39c0,.17-.02.29-.04.36-.03.07-.1.16-.2.27l-.23.23c-.2.2-.4.3-.61.3h-3.69c-.21,0-.42-.09-.62-.26l-.31-.26c-.21-.17-.31-.39-.31-.65v-.52h1.09v.25c0,.13,0,.21.02.25.01.04.06.09.14.15.08.06.14.1.18.11.04.01.14.02.3.02h2.57c.16,0,.25,0,.3-.02.04-.01.1-.05.18-.11.08-.06.12-.11.14-.15.01-.04.02-.12.02-.25v-1.96c0-.19-.08-.36-.23-.49l-.2-.17c-.13-.11-.22-.18-.27-.2-.05-.02-.16-.03-.32-.03h-2.08v-.83h1.9c.16,0,.27,0,.32-.03.05-.02.14-.08.27-.19l.2-.16c.13-.1.21-.18.23-.23.02-.05.03-.15.03-.32v-1.61c0-.13,0-.21-.02-.25-.01-.04-.06-.09-.14-.15-.08-.06-.14-.1-.18-.11-.04-.01-.14-.02-.3-.02h-2.14c-.17,0-.27,0-.31.02-.04.01-.1.05-.18.11-.08.06-.12.11-.14.15-.01.04-.02.12-.02.25v.25h-1.09v-.52c0-.26.1-.48.31-.65l.31-.26c.21-.17.42-.26.62-.26h3.12c.21,0,.42.09.62.26l.31.26c.21.17.31.39.31.65v2.13c0,.15-.01.24-.03.29s-.09.11-.2.2l-.38.31c-.14.11-.26.17-.36.17v.06c.1,0,.22.06.36.17Z"/>
            <path class="cls-3" d="M156.79,67.93h1.09v2.6h1.25v.91h-1.25v2.08h-1.09v-2.08h-4.6v-1.07l4.45-5.95h1.22l-4.33,5.81c-.09.13-.16.21-.22.25v.05h3.48v-2.6Z"/>
            <path class="cls-3" d="M163.16,67.54h2.94c.21,0,.41.09.62.26l.31.26c.21.17.31.39.31.65v3.64c0,.26-.1.48-.31.65l-.31.26c-.21.17-.42.26-.62.26h-3.9c-.21,0-.42-.09-.62-.26l-.31-.26c-.21-.17-.31-.39-.31-.65v-.52h1.09v.25c0,.13,0,.21.02.25.01.04.06.09.14.15.08.06.14.1.18.11.04.01.14.02.3.02h2.94c.16,0,.26,0,.3-.02.04-.01.11-.05.18-.11.08-.06.12-.11.13-.15.01-.04.02-.12.02-.25v-3.09c0-.13,0-.21-.02-.25-.01-.04-.06-.09-.13-.15-.08-.06-.14-.1-.18-.11-.04-.01-.14-.02-.3-.02h-2.51c-.21,0-.42.09-.62.26-.21.17-.31.35-.31.52h-1.09v-4.81h6.11v.91h-5.02v2.85h.05c0-.09.1-.21.29-.35.26-.19.48-.29.65-.29Z"/>
            <path class="cls-3" d="M176.13,66.11h-1.09v-.25c0-.13,0-.21-.02-.25-.01-.04-.06-.09-.14-.15-.08-.06-.14-.1-.18-.11-.04-.01-.14-.02-.3-.02h-3.12c-.16,0-.26,0-.3.02-.04.01-.1.05-.18.11-.08.06-.12.11-.14.15-.01.04-.02.12-.02.25v2.59h.05l.07-.06c.3-.3.54-.45.71-.45h3.54c.21,0,.42.09.62.26l.31.26c.21.17.31.39.31.65v3.25c0,.26-.1.48-.31.65l-.31.26c-.21.17-.41.26-.62.26h-4.21c-.21,0-.42-.09-.62-.26l-.31-.26c-.21-.17-.31-.39-.31-.65v-6.76c0-.26.1-.48.31-.65l.31-.26c.21-.17.42-.26.62-.26h4.08c.21,0,.42.09.62.26l.31.26c.21.17.31.39.31.65v.52ZM175.17,72.07v-2.7c0-.13,0-.21-.02-.25-.01-.04-.06-.09-.14-.15-.08-.06-.14-.1-.18-.11-.04-.01-.14-.02-.3-.02h-2.93c-.16,0-.28,0-.33.03-.06.02-.16.07-.32.17-.2.12-.3.23-.31.32v2.72c0,.13,0,.21.02.25.01.04.06.09.14.15.08.06.14.1.18.11.04.01.14.02.3.02h3.25c.16,0,.26,0,.3-.02.04-.01.1-.05.18-.11.08-.06.12-.11.14-.15.01-.04.02-.12.02-.25Z"/>
          </g>
          <g>
            <path class="cls-3" d="M24.53,101.87h.03c-.05-.18-.08-.36-.08-.53v-5.65h.91v7.59h-.91l-3.97-6.09h-.03c.05.18.08.36.08.53v5.56h-.91v-7.59h.91l3.97,6.18Z"/>
            <path class="cls-3" d="M30.94,102.85h-.04c0,.09-.08.18-.24.27-.13.08-.22.13-.27.14-.05.01-.13.02-.26.02h-1.85c-.17,0-.35-.07-.52-.22l-.26-.22c-.17-.14-.26-.33-.26-.54v-1.3c0-.22.09-.4.26-.54l.26-.22c.17-.14.35-.22.52-.22h1.94c.14,0,.22,0,.26.02.04.01.08.04.14.09.09.07.13.14.13.22h.04v-1.29c0-.11,0-.18-.02-.21-.01-.03-.05-.07-.12-.12-.06-.05-.12-.08-.15-.09-.04-.01-.12-.02-.25-.02h-1.76c-.13,0-.22,0-.27.03-.05.02-.13.08-.27.19l-.65-.54.26-.22c.13-.11.22-.17.27-.19.05-.02.13-.03.26-.03h2.55c.17,0,.35.07.52.22l.26.22c.17.15.26.33.26.54v3.24c0,.11,0,.18.02.21.01.03.05.07.12.12.06.05.1.09.11.12,0,.03.02.1.02.21v.53h-.38c-.13,0-.22,0-.27-.03-.05-.02-.11-.06-.2-.14-.12-.09-.17-.18-.17-.27ZM28.15,101.23v.85c0,.11,0,.18.02.21.01.03.05.07.12.12.06.05.12.08.15.09.04.01.12.02.25.02h1.32c.13,0,.22,0,.27-.02.05-.01.13-.06.27-.14.13-.08.21-.14.23-.17.02-.04.03-.11.03-.22v-.74c0-.11,0-.18-.02-.21-.01-.03-.05-.07-.12-.12-.06-.05-.12-.08-.15-.09-.04-.01-.12-.02-.25-.02h-1.58c-.13,0-.21,0-.25.02-.04.01-.09.04-.15.09-.07.05-.1.09-.12.12,0,.03-.02.1-.02.21Z"/>
            <path class="cls-3" d="M37.48,98.38h.04c0-.07.08-.14.21-.24l.16-.12c.13-.08.22-.13.27-.14.05-.01.14-.02.27-.02h1.72c.17,0,.35.07.52.22l.26.22c.17.15.26.33.26.54v4.44h-.91v-4.22c0-.11,0-.18-.02-.21-.01-.03-.05-.07-.12-.12-.06-.05-.12-.08-.15-.09-.04-.01-.12-.02-.25-.02h-1.19c-.13,0-.22,0-.27.02-.05.01-.14.06-.27.14-.17.1-.25.2-.26.28v4.22h-.91v-4.22c0-.11,0-.18-.02-.21,0-.03-.05-.07-.11-.12-.06-.05-.12-.08-.15-.09-.04-.01-.12-.02-.25-.02h-1.1c-.13,0-.22,0-.27.02-.05.01-.13.06-.27.14-.13.08-.21.14-.23.17-.02.04-.03.11-.03.22v4.11h-.91v-4.22c0-.11,0-.18-.02-.21-.01-.03-.05-.07-.11-.12-.07-.05-.1-.09-.12-.12,0-.03-.02-.1-.02-.21v-.53h.38c.13,0,.22,0,.27.03.05.02.11.06.2.14.12.09.17.18.17.27h.04c0-.09.08-.18.24-.27.13-.08.22-.13.27-.14.05-.01.13-.02.27-.02h1.62c.17,0,.35.07.52.22.15.14.23.24.24.3Z"/>
            <path class="cls-3" d="M46.56,102.3l.65.54-.26.22c-.13.11-.22.17-.27.19-.05.02-.13.03-.27.03h-2.89c-.17,0-.35-.07-.52-.22l-.26-.22c-.17-.14-.26-.33-.26-.54v-3.47c0-.22.09-.4.26-.54l.26-.22c.17-.14.35-.22.52-.22h2.53c.14,0,.32.07.52.22l.27.22c.17.13.26.31.26.54v2.22h-3.71v1.02c0,.11,0,.18.02.21.01.03.05.07.12.12.06.05.12.08.15.09.04.01.12.02.25.02h2.1c.13,0,.22,0,.27-.03.05-.02.14-.08.27-.19ZM46.19,100.35v-1.29c0-.11,0-.18-.02-.21,0-.03-.05-.07-.11-.12-.06-.05-.12-.08-.15-.09-.04-.01-.12-.02-.25-.02h-1.73c-.13,0-.21,0-.25.02-.04.01-.09.04-.15.09-.07.05-.1.09-.12.12,0,.03-.02.1-.02.21v1.29h2.8Z"/>
            <path class="cls-3" d="M55.01,99.81h-2.59c-.17,0-.35-.07-.52-.22l-.29-.25c-.15-.12-.23-.27-.23-.43v-2.24c0-.22.09-.4.26-.54l.26-.22c.17-.14.35-.22.52-.22h2.88c.17,0,.35.07.52.22l.26.22c.17.14.26.32.26.54v.43h-.91v-.21c0-.11,0-.18-.02-.21,0-.03-.05-.07-.11-.12-.06-.05-.12-.08-.15-.09-.04-.01-.12-.02-.25-.02h-2.08c-.13,0-.21,0-.25.02-.04.01-.09.04-.15.09-.06.05-.1.09-.11.12-.01.03-.02.1-.02.21v1.71c0,.11,0,.18.02.21,0,.03.05.07.11.12.06.05.12.08.15.09.04.01.12.02.25.02h2.59c.17,0,.35.07.52.22l.26.22c.17.14.26.32.26.54v2.28c0,.22-.09.4-.26.54l-.26.22c-.17.14-.35.22-.52.22h-3.1c-.17,0-.35-.07-.52-.22l-.26-.22c-.17-.14-.26-.33-.26-.54v-.43h.91v.21c0,.11,0,.18.02.21.01.03.05.07.11.12.07.05.12.08.15.09.04.01.12.02.25.02h2.3c.13,0,.21,0,.25-.02.04-.01.09-.04.15-.09.07-.05.1-.09.12-.12,0-.03.02-.1.02-.21v-1.82c0-.11,0-.18-.02-.21-.01-.03-.05-.07-.12-.12-.06-.05-.12-.08-.15-.09-.04-.01-.12-.02-.25-.02Z"/>
            <path class="cls-3" d="M60.66,103.28h-1.7c-.17,0-.35-.07-.52-.22l-.26-.22c-.17-.14-.26-.33-.26-.54v-4.44h.91v4.22c0,.11,0,.18.02.21.01.03.05.07.12.12.06.05.12.08.15.09.04.01.12.02.25.02h1.17c.13,0,.22,0,.27-.02.05-.01.14-.06.27-.14.13-.08.21-.14.23-.17.02-.04.03-.11.03-.22v-4.11h.91v4.22c0,.11,0,.18.02.21,0,.03.05.07.11.12.06.05.1.09.11.12.01.03.02.1.02.21v.53h-.38c-.13,0-.22,0-.27-.03-.05-.02-.11-.06-.2-.14-.12-.09-.17-.18-.17-.27h-.04c0,.09-.08.18-.24.27-.13.08-.22.13-.27.14-.05.01-.14.02-.27.02Z"/>
            <path class="cls-3" d="M63.79,97.86h.38c.13,0,.22,0,.27.03.05.02.11.06.2.14.12.09.17.18.17.27h.04c0-.09.08-.18.24-.27.13-.08.22-.13.27-.14.05-.01.14-.02.27-.02h1c.17,0,.35.07.52.22l.26.22-.65.54-.13-.11c-.07-.05-.12-.08-.15-.09-.04-.01-.12-.02-.25-.02h-.46c-.13,0-.22,0-.27.02-.05.01-.13.06-.27.14-.13.08-.21.14-.23.17-.02.04-.03.11-.03.22v4.11h-.91v-4.22c0-.11,0-.18-.02-.21,0-.03-.05-.07-.11-.12-.06-.05-.1-.09-.11-.12-.01-.03-.02-.1-.02-.21v-.53Z"/>
            <path class="cls-3" d="M68.32,97.86h.38c.13,0,.22,0,.27.03.05.02.11.06.2.14.12.09.17.18.17.27h.04c0-.09.08-.18.24-.27.13-.08.22-.13.27-.14.05-.01.13-.02.27-.02h1.92c.17,0,.35.07.52.22l.26.22c.17.15.26.33.26.54v4.44h-.91v-4.22c0-.11,0-.18-.02-.21-.01-.03-.05-.07-.11-.12-.07-.05-.12-.08-.15-.09-.04-.01-.12-.02-.25-.02h-1.39c-.13,0-.22,0-.27.02-.05.01-.13.06-.27.14-.13.08-.21.14-.23.17-.02.04-.03.11-.03.22v4.11h-.91v-4.22c0-.11,0-.18-.02-.21-.01-.03-.05-.07-.12-.12-.06-.05-.1-.09-.11-.12,0-.03-.02-.1-.02-.21v-.53Z"/>
            <path class="cls-3" d="M78.22,102.85h-.04c0,.09-.08.18-.24.27-.13.08-.22.13-.27.14-.05.01-.13.02-.27.02h-1.85c-.17,0-.35-.07-.52-.22l-.26-.22c-.17-.14-.26-.33-.26-.54v-1.3c0-.22.09-.4.26-.54l.26-.22c.17-.14.35-.22.52-.22h1.94c.14,0,.22,0,.26.02.04.01.08.04.14.09.09.07.13.14.13.22h.04v-1.29c0-.11,0-.18-.02-.21,0-.03-.05-.07-.11-.12-.06-.05-.12-.08-.15-.09-.04-.01-.12-.02-.25-.02h-1.76c-.13,0-.22,0-.27.03-.05.02-.14.08-.27.19l-.65-.54.26-.22c.13-.11.22-.17.27-.19.05-.02.13-.03.27-.03h2.55c.17,0,.35.07.52.22l.26.22c.17.15.26.33.26.54v3.24c0,.11,0,.18.02.21,0,.03.05.07.11.12.06.05.1.09.11.12.01.03.02.1.02.21v.53h-.38c-.13,0-.22,0-.27-.03-.05-.02-.12-.06-.2-.14-.12-.09-.17-.18-.17-.27ZM75.43,101.23v.85c0,.11,0,.18.02.21,0,.03.05.07.11.12.06.05.12.08.15.09.04.01.12.02.25.02h1.32c.13,0,.22,0,.27-.02.05-.01.14-.06.27-.14.13-.08.21-.14.23-.17.02-.04.03-.11.03-.22v-.74c0-.11,0-.18-.02-.21,0-.03-.05-.07-.11-.12-.06-.05-.12-.08-.15-.09-.04-.01-.12-.02-.25-.02h-1.58c-.13,0-.21,0-.25.02-.04.01-.09.04-.15.09-.06.05-.1.09-.11.12-.01.03-.02.1-.02.21Z"/>
            <path class="cls-3" d="M84.76,98.38h.04c0-.07.08-.14.21-.24l.16-.12c.13-.08.22-.13.27-.14.05-.01.13-.02.27-.02h1.72c.17,0,.35.07.52.22l.26.22c.17.15.26.33.26.54v4.44h-.91v-4.22c0-.11,0-.18-.02-.21,0-.03-.05-.07-.11-.12-.06-.05-.12-.08-.15-.09-.04-.01-.12-.02-.25-.02h-1.19c-.13,0-.22,0-.27.02-.05.01-.14.06-.27.14-.17.1-.25.2-.26.28v4.22h-.91v-4.22c0-.11,0-.18-.02-.21,0-.03-.05-.07-.11-.12-.06-.05-.12-.08-.15-.09-.04-.01-.12-.02-.25-.02h-1.1c-.13,0-.22,0-.27.02-.05.01-.13.06-.27.14-.13.08-.21.14-.23.17-.02.04-.03.11-.03.22v4.11h-.91v-4.22c0-.11,0-.18-.02-.21-.01-.03-.05-.07-.12-.12-.06-.05-.1-.09-.11-.12,0-.03-.02-.1-.02-.21v-.53h.38c.13,0,.22,0,.27.03.05.02.11.06.2.14.12.09.17.18.17.27h.04c0-.09.08-.18.24-.27.13-.08.22-.13.27-.14.05-.01.13-.02.27-.02h1.62c.17,0,.35.07.52.22.15.14.23.24.24.3Z"/>
            <path class="cls-3" d="M93.84,102.3l.65.54-.26.22c-.13.11-.22.17-.27.19-.05.02-.14.03-.27.03h-2.89c-.17,0-.35-.07-.52-.22l-.26-.22c-.17-.14-.26-.33-.26-.54v-3.47c0-.22.09-.4.26-.54l.26-.22c.17-.14.35-.22.52-.22h2.53c.14,0,.32.07.52.22l.27.22c.17.13.26.31.26.54v2.22h-3.71v1.02c0,.11,0,.18.02.21.01.03.05.07.11.12.07.05.12.08.15.09.04.01.12.02.25.02h2.1c.13,0,.22,0,.27-.03.05-.02.13-.08.27-.19ZM93.47,100.35v-1.29c0-.11,0-.18-.02-.21-.01-.03-.05-.07-.11-.12-.07-.05-.12-.08-.15-.09-.04-.01-.12-.02-.25-.02h-1.73c-.13,0-.21,0-.25.02-.04.01-.09.04-.15.09-.06.05-.1.09-.11.12-.01.03-.02.1-.02.21v1.29h2.79Z"/>
          </g>
          <g>
            <path class="cls-3" d="M135.3,13.25h1.26c.69,0,1.19.17,1.52.51.33.34.49.86.49,1.58,0,1.01-.39,1.65-1.16,1.93.84.17,1.26.84,1.26,2,0,.64-.15,1.13-.46,1.47-.31.34-.74.52-1.31.52h-1.61v-8ZM136.37,14.07v2.78c.41-.01.71-.12.89-.32.19-.2.28-.55.28-1.05,0-.54-.08-.91-.24-1.11-.16-.2-.47-.3-.93-.3ZM136.37,17.65v2.79c.43,0,.73-.1.91-.28.18-.18.27-.53.27-1.04,0-.55-.09-.93-.28-1.14-.18-.21-.49-.32-.91-.32Z"/>
            <path class="cls-3" d="M143.22,21.24h-1.03v-.67h-.03c-.26.49-.6.74-1.02.74-.36,0-.67-.17-.94-.5-.27-.33-.41-1.08-.41-2.24,0-1.03.1-1.77.31-2.23.2-.45.55-.68,1.05-.68.23,0,.42.05.57.16.14.11.29.28.44.52h.03v-.6h1.03v5.49ZM141.54,20.42c.26,0,.44-.16.52-.47.09-.31.13-.85.13-1.6,0-.66-.04-1.13-.12-1.4-.08-.27-.25-.41-.5-.41s-.43.13-.53.38c-.1.25-.15.71-.15,1.36,0,.78.04,1.32.12,1.65.08.32.25.49.52.49Z"/>
            <path class="cls-3" d="M145.61,15.74v.53h.03c.26-.4.62-.6,1.07-.6.79,0,1.19.43,1.19,1.3v4.28h-1.02v-3.99c0-.54-.21-.81-.64-.81-.2,0-.35.07-.47.22-.12.14-.17.34-.17.59v3.99h-1.03v-5.5h1.04Z"/>
            <path class="cls-3" d="M152.96,21.24h-1.08l-1.53-2.93h-.03v2.93h-1.03v-8.27h1.03v5.13h.03l1.35-2.35h1.08l-1.38,2.48,1.56,3Z"/>
            <path class="cls-3" d="M160.2,21.24h-.85l-2.04-5.49h-.03v5.49h-.96v-8h.86l2.04,5.49h.03s0-5.49,0-5.49h.95v8Z"/>
            <path class="cls-3" d="M165,21.24h-1.03v-.67h-.03c-.26.49-.6.74-1.02.74-.36,0-.67-.17-.94-.5-.27-.33-.41-1.08-.41-2.24,0-1.03.1-1.77.31-2.23.2-.45.55-.68,1.05-.68.23,0,.42.05.57.16.14.11.29.28.44.52h.03v-.6h1.03v5.49ZM163.32,20.42c.26,0,.44-.16.52-.47.09-.31.13-.85.13-1.6,0-.66-.04-1.13-.12-1.4-.08-.27-.24-.41-.5-.41s-.43.13-.52.38c-.1.25-.15.71-.15,1.36,0,.78.04,1.32.12,1.65.08.32.25.49.52.49Z"/>
            <path class="cls-3" d="M172.05,21.24h-1.03v-4c0-.53-.2-.8-.62-.8-.44,0-.67.32-.67.95v3.84h-1.02v-4.07c0-.21-.06-.38-.17-.51-.12-.14-.26-.21-.44-.21-.45,0-.68.29-.68.87v3.92h-1.03v-5.49h1.04v.5c.33-.39.71-.59,1.14-.59.49,0,.85.23,1.07.68.34-.45.75-.67,1.24-.67.77,0,1.15.44,1.15,1.32v4.24Z"/>
            <path class="cls-3" d="M176.81,18.68h-2.31c0,.59.04,1.04.12,1.35.08.3.28.46.58.46.23,0,.39-.09.48-.26.08-.18.13-.45.13-.83h.93c-.03,1.28-.57,1.93-1.63,1.93-1.14,0-1.71-.9-1.71-2.7,0-1.96.59-2.94,1.77-2.94.45,0,.83.17,1.15.51.32.34.48,1.04.48,2.1v.4ZM175.78,17.89c0-.54-.04-.93-.13-1.17-.09-.24-.25-.35-.48-.35-.27,0-.45.12-.54.37-.09.25-.13.63-.13,1.15h1.27Z"/>
          </g>
          <g>
            <path class="cls-3" d="M22.59,21.52c-.36.17-.72.26-1.08.26-.72,0-1.34-.28-1.87-.84-.53-.56-.79-1.72-.79-3.49,0-1.92.26-3.21.79-3.88.53-.67,1.16-1,1.91-1,.28,0,.63.05,1.04.14v1.09c-.27-.11-.53-.16-.77-.16-.47,0-.87.24-1.2.71s-.5,1.41-.5,2.81c0,.83.04,1.49.11,1.96.07.47.24.85.5,1.12.26.28.59.42.99.42.23,0,.52-.07.87-.22v1.06Z"/>
            <path class="cls-3" d="M26.63,16.45c-.53.01-.91.12-1.13.3-.22.19-.34.6-.34,1.25v3.68h-1.17v-6.13h1.17v.91h.03c.34-.66.79-1,1.36-1h.08v1Z"/>
            <path class="cls-3" d="M31.31,18.81h-2.58c0,.67.05,1.17.14,1.51.09.34.31.51.65.51.26,0,.44-.1.53-.3.09-.2.14-.51.15-.93h1.05c-.03,1.44-.64,2.16-1.83,2.16-1.27,0-1.91-1.01-1.91-3.02,0-2.19.66-3.29,1.98-3.29.5,0,.93.19,1.29.57.36.38.54,1.16.54,2.35v.44ZM30.15,17.92c0-.61-.05-1.04-.15-1.31-.1-.26-.28-.4-.53-.4-.3,0-.5.14-.6.42-.1.28-.14.71-.14,1.29h1.43Z"/>
            <path class="cls-3" d="M35.42,12.42h1.14v9.26h-1.13v-.82h-.03c-.28.6-.67.91-1.18.91-.3,0-.57-.1-.82-.3-.25-.2-.43-.48-.52-.84-.1-.36-.15-.96-.15-1.8,0-.96.04-1.65.13-2.06.08-.41.25-.74.48-.97.24-.23.54-.35.91-.35.48,0,.86.27,1.14.82h.03v-3.84ZM35.43,18.51c0-.76-.05-1.29-.14-1.61s-.29-.47-.58-.47-.49.17-.6.5c-.11.33-.16.88-.16,1.65s.05,1.36.15,1.7c.1.34.29.51.58.51s.47-.18.59-.53c.11-.35.16-.94.16-1.74Z"/>
            <path class="cls-3" d="M38.03,13.67c0-.17.06-.32.19-.44.12-.13.27-.19.45-.19s.32.06.45.19c.12.13.19.27.19.44s-.06.32-.19.45c-.12.12-.27.19-.45.19s-.33-.06-.45-.19c-.12-.12-.18-.27-.18-.45ZM38.09,15.54h1.14v6.13h-1.14v-6.13Z"/>
            <path class="cls-3" d="M42.94,16.45h-.74v5.23h-1.15v-5.23h-.74v-.91h.74v-1.67h1.15v1.67h.74v.91Z"/>
            <path class="cls-3" d="M50.49,21.52c-.36.17-.72.26-1.08.26-.72,0-1.34-.28-1.87-.84-.53-.56-.79-1.72-.79-3.49,0-1.92.26-3.21.79-3.88.53-.67,1.16-1,1.91-1,.28,0,.63.05,1.04.14v1.09c-.27-.11-.53-.16-.77-.16-.47,0-.87.24-1.2.71-.33.48-.5,1.41-.5,2.81,0,.83.04,1.49.11,1.96s.24.85.5,1.12c.26.28.59.42.99.42.23,0,.52-.07.86-.22v1.06Z"/>
            <path class="cls-3" d="M55.64,21.68h-1.15v-.74h-.04c-.29.55-.67.83-1.14.83-.4,0-.75-.19-1.05-.56-.3-.37-.45-1.21-.45-2.5,0-1.15.12-1.98.34-2.49.23-.51.62-.76,1.18-.76.26,0,.47.06.63.18.16.12.33.32.49.58h.04v-.67h1.15v6.13ZM53.76,20.76c.29,0,.49-.18.58-.53.1-.35.15-.95.15-1.79,0-.74-.04-1.26-.13-1.56-.09-.3-.27-.45-.55-.45s-.48.14-.59.42c-.11.28-.16.79-.16,1.52,0,.87.04,1.48.13,1.84.09.36.28.54.58.54Z"/>
            <path class="cls-3" d="M59.78,16.45c-.53.01-.91.12-1.13.3-.22.19-.34.6-.34,1.25v3.68h-1.17v-6.13h1.17v.91h.03c.34-.66.79-1,1.36-1h.08v1Z"/>
            <path class="cls-3" d="M63.32,12.42h1.14v9.26h-1.13v-.82h-.03c-.28.6-.67.91-1.18.91-.3,0-.57-.1-.82-.3s-.42-.48-.52-.84c-.1-.36-.15-.96-.15-1.8,0-.96.04-1.65.12-2.06.09-.41.25-.74.48-.97.24-.23.54-.35.91-.35.48,0,.86.27,1.14.82h.03v-3.84ZM63.33,18.51c0-.76-.05-1.29-.14-1.61-.1-.32-.29-.47-.58-.47s-.49.17-.6.5c-.11.33-.16.88-.16,1.65s.05,1.36.15,1.7c.1.34.29.51.58.51s.48-.18.59-.53c.11-.35.16-.94.16-1.74Z"/>
          </g>
          <g>
            <path class="cls-3" d="M23.14,80.83c0,.9-.15,1.58-.44,2.02-.29.44-.73.66-1.33.66s-1.02-.23-1.32-.68c-.3-.45-.45-1.12-.45-1.99s.15-1.6.44-2.03c.29-.44.73-.65,1.33-.65s1.02.23,1.32.68c.3.46.45,1.12.45,2ZM20.45,80.83c0,.71.07,1.22.22,1.52.15.3.38.46.7.46s.56-.15.71-.46c.15-.31.22-.81.22-1.51s-.07-1.2-.22-1.52c-.15-.31-.38-.47-.71-.47s-.55.15-.7.46c-.15.31-.22.81-.22,1.52Z"/>
            <path class="cls-3" d="M26.23,83.43h-.84v-3.36c0-.4,0-.72.03-.95-.05.06-.12.12-.2.19-.08.07-.35.29-.8.65l-.42-.53,1.53-1.2h.7v5.21Z"/>
            <path class="cls-3" d="M31.46,83.43h-3.53v-.63l1.34-1.35c.4-.41.66-.69.79-.86s.22-.33.28-.48.09-.31.09-.48c0-.24-.07-.42-.21-.56-.14-.14-.34-.2-.59-.2-.2,0-.39.04-.58.11-.19.07-.4.21-.65.4l-.45-.55c.29-.25.57-.42.84-.52.27-.1.56-.15.87-.15.48,0,.87.13,1.16.38.29.25.44.59.44,1.02,0,.24-.04.46-.13.67-.08.21-.21.43-.39.65-.17.22-.46.53-.87.91l-.9.88v.04h2.47v.74Z"/>
            <path class="cls-3" d="M35.43,79.42c0,.33-.1.61-.29.82-.19.22-.46.37-.81.44v.03c.42.05.73.18.94.39.21.21.31.48.31.83,0,.5-.18.89-.53,1.16-.35.27-.86.41-1.51.41-.58,0-1.06-.09-1.46-.28v-.75c.22.11.45.19.7.25.25.06.48.09.71.09.4,0,.71-.08.9-.22.2-.15.3-.38.3-.69,0-.28-.11-.48-.33-.61-.22-.13-.57-.2-1.04-.2h-.45v-.68h.46c.83,0,1.25-.29,1.25-.86,0-.22-.07-.4-.22-.52-.14-.12-.36-.18-.64-.18-.2,0-.39.03-.57.08-.18.06-.4.16-.65.33l-.41-.58c.48-.35,1.03-.53,1.66-.53.53,0,.94.11,1.23.34.29.23.44.54.44.93Z"/>
          </g>
          <g>
            <g>
              <path class="cls-3" d="M145.6,84.73h3.61c.15,0,.29.06.44.18l.22.18c.15.12.22.27.22.46v4.74c0,.18-.07.33-.22.46l-.22.18c-.15.12-.29.18-.44.18h-3.61c-.15,0-.29-.06-.44-.18l-.22-.18c-.15-.12-.22-.27-.22-.46v-4.74c0-.18.07-.33.22-.46l.22-.18c.15-.12.29-.18.44-.18ZM149.32,90.1v-4.36c0-.09,0-.15-.01-.18,0-.03-.04-.06-.1-.1-.05-.04-.1-.07-.13-.08-.03,0-.1-.01-.21-.01h-2.93c-.11,0-.18,0-.21.01-.03,0-.07.04-.13.08-.05.04-.09.08-.1.1,0,.03-.01.09-.01.18v4.36c0,.09,0,.15.01.18,0,.03.04.06.1.11s.1.07.13.08c.03,0,.1.01.21.01h2.93c.11,0,.18,0,.21-.01.03,0,.07-.03.13-.08s.09-.08.1-.11c0-.03.01-.09.01-.18Z"/>
              <path class="cls-3" d="M151.85,86.57l-.43-.45,1.29-1.39h1.07v6.38h-.71v-5.63c0-.12,0-.2.03-.24l-.03-.03-1.21,1.36Z"/>
              <path class="cls-3" d="M158.87,84.73h.73l-4.82,7.2h-.69l4.79-7.2Z"/>
              <path class="cls-3" d="M160.14,88.29l.43-.36c.1-.08.18-.12.26-.12v-.05c-.07,0-.16-.04-.26-.12l-.3-.24c-.1-.08-.14-.18-.14-.31v-1.56c0-.18.07-.33.22-.46l.22-.18c.14-.12.29-.18.44-.18h2.79c.14,0,.29.06.44.18l.22.18c.14.12.22.27.22.46v1.56c0,.13-.05.23-.15.31l-.3.24c-.1.08-.18.12-.26.12v.05c.07,0,.16.04.26.12l.43.36c.09.07.13.19.13.36v1.64c0,.18-.07.33-.22.46-.05.04-.12.1-.22.18-.15.12-.29.18-.44.18h-3.01c-.15,0-.29-.06-.44-.18-.1-.09-.17-.15-.22-.18-.15-.12-.22-.27-.22-.46v-1.64c0-.17.04-.29.13-.36ZM163.31,88.19h-1.84c-.09,0-.15,0-.18.01-.03,0-.08.04-.15.1l-.2.16c-.08.06-.12.11-.14.14-.01.03-.02.09-.02.19v1.29c0,.09,0,.15.01.18,0,.03.04.06.1.11s.1.07.13.08c.03,0,.1.01.21.01h2.33c.11,0,.18,0,.21-.01.03,0,.07-.03.13-.08.05-.04.09-.08.1-.11,0-.03.01-.09.01-.18v-1.29c0-.1,0-.16-.02-.19-.01-.03-.06-.08-.14-.14l-.2-.16c-.07-.06-.12-.1-.16-.1-.03,0-.09-.01-.18-.01ZM163.45,85.37h-2.12c-.11,0-.18,0-.21.01-.03,0-.07.04-.13.08-.05.04-.09.08-.1.1,0,.03-.01.09-.01.18v1.19c0,.1,0,.17.02.2.01.03.05.08.13.14l.24.19c.06.05.11.08.14.09.03,0,.11.01.21.01h1.53c.11,0,.18,0,.21-.01.03,0,.08-.04.14-.09l.24-.19c.07-.06.12-.11.13-.14.01-.03.02-.1.02-.2v-1.19c0-.09,0-.15-.01-.18,0-.03-.04-.06-.1-.1-.05-.04-.1-.07-.13-.08-.03,0-.1-.01-.21-.01Z"/>
              <path class="cls-3" d="M167.29,84.73h3.61c.14,0,.29.06.44.18l.22.18c.14.12.22.27.22.46v4.74c0,.18-.07.33-.22.46l-.22.18c-.15.12-.29.18-.44.18h-3.61c-.14,0-.29-.06-.44-.18l-.22-.18c-.14-.12-.22-.27-.22-.46v-4.74c0-.18.07-.33.22-.46l.22-.18c.15-.12.29-.18.44-.18ZM171.02,90.1v-4.36c0-.09,0-.15-.01-.18,0-.03-.04-.06-.1-.1-.05-.04-.1-.07-.13-.08-.03,0-.1-.01-.21-.01h-2.94c-.11,0-.18,0-.21.01-.03,0-.07.04-.13.08-.05.04-.09.08-.1.1,0,.03-.01.09-.01.18v4.36c0,.09,0,.15.01.18,0,.03.04.06.1.11s.1.07.13.08c.03,0,.1.01.21.01h2.94c.11,0,.18,0,.21-.01.03,0,.07-.03.13-.08s.09-.08.1-.11c0-.03.01-.09.01-.18Z"/>
            </g>
            <g>
              <path class="cls-3" d="M128.37,86.41h.02s0-.05.02-.1l.72-2.33h.34l-.88,2.66h-.42l-.88-2.66h.34l.72,2.33c.02.05.02.08.02.1Z"/>
              <path class="cls-3" d="M129.72,86.65l.91-2.66h.45l.93,2.66h-.32l-.2-.55h-1.27l-.19.55h-.32ZM130.86,84.21h-.02s0,.07-.03.11l-.51,1.53h1.11l-.53-1.53s-.03-.08-.03-.11Z"/>
              <path class="cls-3" d="M134.23,86.38v.27h-1.64v-2.66h.32v2.4h1.32Z"/>
              <path class="cls-3" d="M134.58,83.98h.32v2.66h-.32v-2.66Z"/>
              <path class="cls-3" d="M135.66,86.65v-2.66h1.41c.07,0,.13.03.18.08l.37.3c.06.05.09.1.09.15v1.6c0,.05-.03.1-.09.15l-.37.3c-.05.05-.12.08-.18.08h-1.41ZM137.39,86v-1.37c0-.05-.03-.1-.09-.15l-.18-.15c-.05-.05-.12-.08-.18-.08h-.95v2.13h.95c.07,0,.13-.03.18-.08l.18-.15c.06-.05.09-.1.09-.15Z"/>
              <path class="cls-3" d="M127.88,88.55h2.01v.27h-.84v2.4h-.32v-2.4h-.84v-.27Z"/>
              <path class="cls-3" d="M131.95,88.55h.32v2.66h-.32v-1.24h-1.38v1.24h-.32v-2.66h.32v1.18h1.38v-1.18Z"/>
              <path class="cls-3" d="M133.03,88.55h1.41c.06,0,.12.03.18.08l.09.08c.06.05.09.11.09.19v.89c0,.08-.03.14-.1.2l-.09.08c-.06.05-.12.07-.18.07h-.21l.39.61s.05.07.06.08c0,.01.04.03.08.05l.04.02s.07.05.08.06c0,.02.01.05.01.11v.15h-.1s-.08,0-.09,0c-.02,0-.04-.02-.08-.05l-.07-.05c-.06-.04-.1-.09-.14-.15l-.51-.81h-.55v1.07h-.32v-2.66ZM133.35,88.81v1.07h.95s.07,0,.09,0c.01,0,.03-.01.05-.03s.04-.03.04-.04c0-.01,0-.04,0-.07v-.75s0-.06,0-.07c0-.01-.02-.03-.04-.04-.02-.02-.04-.03-.05-.03-.01,0-.04,0-.09,0h-.95Z"/>
              <path class="cls-3" d="M137.3,88.55h.32v2.32c0,.08-.03.14-.09.19l-.09.08c-.06.05-.12.08-.18.08h-1.29c-.06,0-.12-.03-.18-.08l-.09-.08c-.06-.05-.09-.11-.09-.19v-2.32h.32v2.24s0,.06,0,.07c0,.01.02.03.04.04.02.02.04.03.05.03.01,0,.04,0,.09,0h1.01s.08,0,.09,0c.01,0,.03-.01.05-.03.02-.02.04-.03.04-.04,0-.01,0-.04,0-.07v-2.24Z"/>
            </g>
            <polygon class="cls-2" points="139.52 86 139.52 89.24 141.96 87.62 139.52 86"/>
          </g>
        </g>
      </g>
    </g>
  </g>
</svg>